<svg id="Capa_1" enable-background="new 0 0 497 497" height="512" viewBox="0 0 497 497" width="512" xmlns="http://www.w3.org/2000/svg"><g><g><path d="m59.095 25.892c-26.654-14.479-59.095 4.816-59.095 35.149v288.484c0 21.993 12.033 42.224 31.358 52.722l112.827 61.294c6.698 3.639 14.09 5.458 21.481 5.458l73-220.166-73-165.046z" fill="#d4d4ff"/><path d="m309.852 5.458-144.185 78.33v385.212c7.392 0 14.783-1.819 21.481-5.458l144.185-78.33 80-136.711-80-248.5c-7.391-.001-14.783 1.819-21.481 5.457z" fill="#efedff"/><path d="m465.642 66.753-112.827-61.295c-6.698-3.638-14.09-5.458-21.482-5.458v385.211l106.572 57.896c26.654 14.481 59.095-4.815 59.095-35.147v-288.485c0-21.993-12.033-42.224-31.358-52.722z" fill="#d4d4ff"/></g><g><path d="m53.864 74.262c-3.998-2.172-8.864.723-8.864 5.273v90.096l5 8.7-5 12.513v158.682c0 5.503 3.004 10.553 7.84 13.18l112.827 61.294 56-144.834-14.361-53.328-41.639-90.838z" fill="#30cd9c"/><path d="m165.667 135v203.381l-5 9.901 5 11.312v64.406l165.666-90 59-97.5-59-191.5z" fill="#70dcba"/><path d="m443.136 394.738c3.998 2.172 8.864-.723 8.864-5.272v-140.479l-5-11.847 5-9.366v-108.299c0-5.503-3.004-10.554-7.84-13.181l-112.827-61.294v289z" fill="#30cd9c"/></g><g fill="#313d40"><path d="m196.051 178.356c-4.143 0-7.5 3.357-7.5 7.5v12c0 4.143 3.357 7.5 7.5 7.5s7.5-3.357 7.5-7.5v-12c0-4.142-3.358-7.5-7.5-7.5z"/><path d="m300.948 178.356c-4.143 0-7.5 3.357-7.5 7.5v12c0 4.143 3.357 7.5 7.5 7.5s7.5-3.357 7.5-7.5v-12c0-4.142-3.357-7.5-7.5-7.5z"/><path d="m269.891 191.845c-3.122-2.721-7.861-2.396-10.581.728-2.729 3.132-6.669 4.928-10.81 4.928s-8.08-1.796-10.81-4.928c-2.721-3.124-7.459-3.448-10.581-.728-3.123 2.721-3.449 7.459-.728 10.581 5.578 6.402 13.641 10.074 22.118 10.074s16.54-3.672 22.118-10.074c2.723-3.122 2.397-7.861-.726-10.581z"/></g><path d="" fill="#5fd9b3"/><path d="m367.17 394.492 66.018 44.48c.088.059.173.121.255.187 7.716 6.208 12.141 15.443 12.141 25.336 0 17.923-14.582 32.505-32.504 32.505-9.894 0-19.254-4.595-25.461-12.311l-44.542-66.104v-24.093z" fill="#ce857a"/><g><path d="m312.108 249.514h-26.135l-45.588 45.588v91.828l45.587 45.587h26.137c41.163-10.092 71.706-47.227 71.706-91.502s-30.544-81.41-71.707-91.501z" fill="#9ea2e3"/><path d="m240.385 341.016c0-44.36 30.622-81.423 71.722-91.502-7.213-1.768-14.749-2.713-22.508-2.713-51.906 0-94.215 42.071-94.215 94.215 0 52.175 42.341 94.215 94.215 94.215 7.759 0 15.296-.945 22.509-2.713-41.081-10.077-71.723-47.119-71.723-91.502z" fill="#8288cb"/></g><path d="m289.6 390.23c27.137 0 49.215-22.078 49.215-49.215s-22.078-49.215-49.215-49.215-49.215 22.078-49.215 49.215c0 27.138 22.078 49.215 49.215 49.215z" fill="#70dcba"/><g fill="#0caf7b"><path d="m106.389 161.275 22.409 22.409c2.929 2.929 7.678 2.929 10.606 0s2.929-7.677 0-10.606l-22.409-22.409c-14.645-14.645-38.388-14.645-53.033 0l-18.962 18.962v21.213l29.569-29.569c8.787-8.787 23.033-8.787 31.82 0z"/><path d="m435.419 211.193c-7.278-7.278-17.121-11.606-27.412-11.507-7.319.071-14.304 2.229-20.278 6.186l-21.23-21.486c-2.964-2.999-7.83-2.977-10.764.097-2.837 2.972-2.573 7.747.315 10.669l20.54 20.788-8.994 8.994c-2.929 2.929-2.929 7.677 0 10.606s7.678 2.929 10.606 0l14.266-14.266c8.772-8.773 23.047-8.772 31.82 0l27.712 27.713v-21.213z"/><path d="m122.579 324.113-7.341-7.341c-9.226-9.226-24.236-9.226-33.462 0l-13.072 13.072c-2.929 2.929-2.929 7.678 0 10.606 2.929 2.929 7.678 2.929 10.606 0l13.072-13.072c3.377-3.377 8.872-3.377 12.249 0l6.644 6.644-10.912 10.912c-2.929 2.929-2.929 7.677 0 10.606s7.678 2.929 10.606 0l16.34-16.34c4.96-4.96 13.003-4.96 17.963 0l20.393 20.393v-21.213l-9.787-9.787c-9.023-9.024-22.723-10.513-33.299-4.48z"/></g></g></svg>